<svg width="35" height="35" viewBox="0 0 35 35" fill="none" xmlns="http://www.w3.org/2000/svg">
<path d="M9.63647 5.43886H8.03687C5.79666 5.43886 4.67572 5.43886 3.82007 5.82639C3.06742 6.16727 2.45594 6.71081 2.07245 7.37983C1.63647 8.1404 1.63647 9.1368 1.63647 11.1281V12.55M9.63647 5.43886H25.6365M9.63647 5.43886V1.8833M25.6365 5.43886H27.2369C29.4771 5.43886 30.5956 5.43886 31.4513 5.82639C32.2039 6.16727 32.8174 6.71081 33.2009 7.37983C33.6365 8.13966 33.6365 9.13485 33.6365 11.1223V12.55M25.6365 5.43886V1.8833M1.63647 12.55V28.1948C1.63647 30.1861 1.63647 31.1812 2.07245 31.9418C2.45594 32.6108 3.06742 33.1553 3.82007 33.4961C4.67488 33.8833 5.79446 33.8833 8.0303 33.8833H27.2427C29.4785 33.8833 30.5965 33.8833 31.4513 33.4961C32.2039 33.1553 32.8174 32.6108 33.2009 31.9418C33.6365 31.1819 33.6365 30.1882 33.6365 28.2008V12.55M1.63647 12.55H33.6365M25.6365 26.7722H25.6405L25.6404 26.7757L25.6365 26.7757V26.7722ZM17.6365 26.7722H17.6405L17.6404 26.7757L17.6365 26.7757V26.7722ZM9.63647 26.7722H9.64047L9.64038 26.7757L9.63647 26.7757V26.7722ZM25.6404 19.6611V19.6646L25.6365 19.6646V19.6611H25.6404ZM17.6365 19.6611H17.6405L17.6404 19.6646L17.6365 19.6646V19.6611ZM9.63647 19.6611H9.64047L9.64038 19.6646L9.63647 19.6646V19.6611Z" stroke="url(#paint0_linear_84_346)" stroke-width="2" stroke-linecap="round" stroke-linejoin="round"/>
<defs>
<linearGradient id="paint0_linear_84_346" x1="18" y1="34" x2="18" y2="2" gradientUnits="userSpaceOnUse">
<stop stop-color="#3D8BC3"/>
<stop offset="1" stop-color="#1A468E"/>
</linearGradient>
</defs>
</svg>
