<svg width="36" height="36" viewBox="0 0 36 36" fill="none" xmlns="http://www.w3.org/2000/svg">
<path d="M30.0202 1.74414H5.67577C4.41098 1.74414 3.19797 2.24658 2.30362 3.14092C1.40927 4.03529 0.90683 5.24828 0.90683 6.51309V30.8575C0.90683 32.1224 1.40927 33.3354 2.30362 34.2297C3.19797 35.124 4.41098 35.6265 5.67577 35.6265H16.7553V23.2594H12.5666V18.4354H16.7553V14.882C16.7553 12.8681 17.3122 11.3032 18.4261 10.1914C19.54 9.07756 21.0499 8.5185 22.9578 8.5185C24.868 8.5185 26.1047 8.59262 26.6701 8.73238V13.027H24.1247C23.2056 13.027 22.5788 13.2218 22.2421 13.6114C21.9075 13.999 21.7402 14.5834 21.7402 15.3606V18.4354H26.5113L25.876 23.2594H21.7402V35.6265H30.0202C31.2851 35.6265 32.4981 35.124 33.3923 34.2297C34.2868 33.3354 34.7891 32.1224 34.7891 30.8575V6.51309C34.7891 5.24828 34.2868 4.03529 33.3923 3.14092C32.4981 2.24658 31.2851 1.74414 30.0202 1.74414Z" fill="white"/>
</svg>
