<svg width="20" height="20" viewBox="0 0 20 20" fill="none" xmlns="http://www.w3.org/2000/svg">
<path d="M8.85525 11.1688L13.759 6.26491M18.7754 3.27219L14.6361 16.725C14.2651 17.9306 14.0795 18.5337 13.7596 18.7336C13.482 18.907 13.1385 18.936 12.8362 18.8106C12.4877 18.666 12.2048 18.1013 11.6406 16.9727L9.0188 11.7291C8.92925 11.55 8.88443 11.4608 8.82462 11.3832C8.77154 11.3144 8.71028 11.2523 8.64143 11.1993C8.56559 11.1408 8.47792 11.097 8.30681 11.0114L3.05121 8.38359C1.92264 7.8193 1.35831 7.53689 1.2137 7.18837C1.08829 6.88613 1.11689 6.54221 1.29028 6.26469C1.49022 5.94469 2.09326 5.75879 3.29924 5.38772L16.7519 1.24839C17.7 0.956658 18.1742 0.810911 18.4945 0.928479C18.7734 1.03088 18.9933 1.25058 19.0957 1.52952C19.2132 1.84961 19.0674 2.32362 18.776 3.27079L18.7754 3.27219Z" stroke="white" stroke-linecap="round" stroke-linejoin="round"/>
</svg>
