<svg width="19" height="24" viewBox="0 0 19 24" fill="none" xmlns="http://www.w3.org/2000/svg">
<path d="M1 9.58226C1 15.5971 6.15404 20.5711 8.43534 22.4781C8.76184 22.751 8.92704 22.8891 9.17062 22.9591C9.36029 23.0136 9.63944 23.0136 9.82912 22.9591C10.0732 22.889 10.2372 22.7522 10.5649 22.4783C12.8462 20.5713 18 15.5976 18 9.58282C18 7.30658 17.1045 5.12331 15.5104 3.51377C13.9164 1.90423 11.7545 1 9.50015 1C7.24579 1 5.08367 1.90437 3.48961 3.5139C1.89554 5.12344 1 7.30603 1 9.58226Z" stroke="white" stroke-width="2" stroke-linecap="round" stroke-linejoin="round"/>
<path d="M7.07146 8.4382C7.07146 9.80754 8.15878 10.9176 9.50005 10.9176C10.8413 10.9176 11.9286 9.80754 11.9286 8.4382C11.9286 7.06887 10.8413 5.9588 9.50005 5.9588C8.15878 5.9588 7.07146 7.06887 7.07146 8.4382Z" stroke="white" stroke-width="2" stroke-linecap="round" stroke-linejoin="round"/>
</svg>
