<svg width="36" height="26" viewBox="0 0 36 26" fill="none" xmlns="http://www.w3.org/2000/svg">
<path d="M18.3094 25.5703C14.2945 25.4438 10.4766 25.3453 6.65859 25.1977C5.83593 25.1625 4.99921 25.036 4.19765 24.8461C2.69296 24.4946 1.65234 23.5875 1.11796 22.1039C0.689056 20.9086 0.534369 19.6781 0.421869 18.4266C0.175775 15.4875 0.175775 12.5485 0.295306 9.6094C0.365619 7.95002 0.407806 6.27658 0.850775 4.66643C1.11796 3.70315 1.4414 2.76096 2.22187 2.06486C3.04453 1.32658 4.00781 0.883615 5.10468 0.834396C8.11406 0.68674 11.1164 0.503927 14.1258 0.475802C18.1758 0.433615 22.2328 0.489865 26.2828 0.567209C28.0336 0.602365 29.7984 0.693771 31.5352 0.918771C33.1242 1.12971 34.3125 2.01565 34.9453 3.56252C35.4305 4.7508 35.6133 5.99533 35.7187 7.26096C35.993 10.4321 36 13.6031 35.8453 16.7742C35.768 18.3844 35.6906 20.0016 35.2336 21.5696C34.7133 23.3696 33.6094 24.5578 31.7672 24.9656C31.05 25.1203 30.3047 25.1766 29.5734 25.2047C25.7484 25.3383 21.9305 25.4578 18.3094 25.5703ZM14.4211 17.5758C17.6273 15.9164 20.7984 14.2711 24.0328 12.5906C20.8055 10.9031 17.6344 9.2508 14.4211 7.57033C14.4211 10.9242 14.4211 14.2219 14.4211 17.5758Z" fill="white"/>
</svg>
