<svg width="17" height="17" viewBox="0 0 17 17" fill="none" xmlns="http://www.w3.org/2000/svg">
<path d="M6 15.1667C6 15.6269 6.3731 16 6.83333 16H10.1667C10.6269 16 11 15.6269 11 15.1667V11L15.1667 11C15.6269 11 16 10.6269 16 10.1667V6.83333C16 6.3731 15.6269 6 15.1667 6H11L11 1.83333C11 1.3731 10.6269 1 10.1667 1H6.83333C6.3731 1 6 1.3731 6 1.83333V6H1.83333C1.3731 6 1 6.3731 1 6.83333V10.1667C1 10.6269 1.3731 11 1.83333 11H6V15.1667Z" stroke="white" stroke-width="2" stroke-linecap="round" stroke-linejoin="round"/>
</svg>
