<svg width="36" height="36" viewBox="0 0 36 36" fill="none" xmlns="http://www.w3.org/2000/svg">
<g clip-path="url(#clip0_55_438)">
<path d="M29.3844 8.59525C29.3845 9.00724 29.2624 9.41 29.0336 9.75259C28.8047 10.0952 28.4794 10.3622 28.0988 10.5199C27.7182 10.6776 27.2994 10.7189 26.8953 10.6385C26.4912 10.5582 26.1201 10.3598 25.8287 10.0685C25.5374 9.77717 25.339 9.40599 25.2587 9.00192C25.1783 8.59784 25.2196 8.17901 25.3773 7.7984C25.535 7.41778 25.802 7.09249 26.1446 6.86365C26.4872 6.63481 26.89 6.51272 27.302 6.5128C27.8542 6.51292 28.3838 6.73235 28.7743 7.12286C29.1649 7.51337 29.3843 8.04298 29.3844 8.59525ZM36 17.9999L35.9996 18.0261L35.8813 25.578C35.8506 28.301 34.7552 30.9038 32.8297 32.8293C30.9041 34.7549 28.3014 35.8502 25.5784 35.881L18 36L17.9738 35.9995L10.4219 35.8816C7.69892 35.8508 5.09611 34.7555 3.17049 32.8299C1.24487 30.9044 0.149412 28.3016 0.118543 25.5786L0 17.9999L0.00051433 17.9737L0.118457 10.4215C0.149413 7.6985 1.2449 5.09578 3.1705 3.17026C5.0961 1.24474 7.69886 0.149377 10.4218 0.118557L18 -0.000244141L18.0262 0.000270193L25.5781 0.118214C28.301 0.149037 30.9037 1.24442 32.8292 3.16995C34.7547 5.09548 35.8501 7.6982 35.8809 10.4211L36 17.9999ZM32.6475 17.9999L32.5298 10.4741C32.5089 8.62299 31.7642 6.85359 30.4552 5.54456C29.1462 4.23552 27.3768 3.49086 25.5257 3.46992L18 3.35241L10.4743 3.46992C8.62317 3.4909 6.8538 4.23557 5.54477 5.54459C4.23575 6.85361 3.49106 8.62299 3.47006 10.4741L3.35254 17.9999L3.47006 25.5257C3.49099 27.3768 4.23566 29.1462 5.5447 30.4552C6.85374 31.7643 8.62315 32.5089 10.4743 32.5298L18 32.6474L25.5257 32.5298C27.3768 32.509 29.1463 31.7643 30.4553 30.4553C31.7643 29.1462 32.5089 27.3768 32.5298 25.5257L32.6475 17.9999ZM27.2434 17.9999C27.2434 19.8281 26.7013 21.6153 25.6856 23.1354C24.6699 24.6555 23.2263 25.8402 21.5372 26.5398C19.8482 27.2395 17.9896 27.4225 16.1966 27.0658C14.4035 26.7092 12.7565 25.8288 11.4637 24.5361C10.171 23.2433 9.29065 21.5962 8.934 19.8032C8.57735 18.0101 8.76041 16.1515 9.46004 14.4625C10.1597 12.7734 11.3445 11.3298 12.8646 10.3141C14.3847 9.2984 16.1718 8.75629 18 8.7563C20.4507 8.75907 22.8002 9.73384 24.5331 11.4667C26.2659 13.1997 27.2407 15.5492 27.2434 17.9999ZM23.8914 17.9999C23.8914 16.8346 23.5459 15.6956 22.8985 14.7267C22.2511 13.7579 21.331 13.0027 20.2545 12.5568C19.1779 12.1109 17.9934 11.9942 16.8505 12.2216C15.7077 12.4489 14.6579 13.01 13.834 13.834C13.01 14.6579 12.4489 15.7077 12.2216 16.8506C11.9943 17.9934 12.111 19.178 12.5569 20.2545C13.0028 21.3311 13.758 22.2512 14.7268 22.8986C15.6957 23.5459 16.8348 23.8914 18 23.8914C19.5619 23.8896 21.0594 23.2683 22.1638 22.1638C23.2683 21.0593 23.8896 19.5618 23.8914 17.9999Z" fill="white"/>
</g>
<defs>
<clipPath id="clip0_55_438">
<rect width="36" height="36" fill="white"/>
</clipPath>
</defs>
</svg>
